# xmcd
# 
# Track frame offsets:
#     182
#     20867
#     23620
#     46780
#     61750
#     93465
#     109932
#     148855
#     173385
# 
# Disc length: 2433
# 
# Revision: 3
# Processed by: cddbd v1.5.2PL0 Copyright (c) Steve Scherf et al.
# Submitted via: fre:ac v1.1beta1pre3
# 
DISCID=6d097f09
DTITLE=BB King - The Best of BB King
DYEAR=0
DGENRE=Blues
TTITLE0=Hummingbird
TTITLE1=Cook County Jail Introduction
TTITLE2=How Blue Can You Get
TTITLE3=Caladonia
TTITLE4=Sweet Sixteen
TTITLE5=Ain't Nobody Home
TTITLE6=Why I Sing The Blues
TTITLE7=The Thrill Is Gone
TTITLE8=Nobody Loves Me But My Mother
EXTD=MCA Rescords YEAR: 1973
EXTT0=
EXTT1=
EXTT2=
EXTT3=
EXTT4=
EXTT5=
EXTT6=
EXTT7=
EXTT8=
PLAYORDER=
